<svg width="1336" height="136" viewBox="0 0 1336 136" fill="none" xmlns="http://www.w3.org/2000/svg">
<path d="M145.344 134.04H133.232L129.464 93.3973L121.12 22.8783H119.775L77.5171 118.16H66.2125L25.5699 22.8783H23.9549L15.8802 92.3207L11.8429 134.04H0L15.0728 0.807467H30.6838L38.2202 21.2634L71.8648 100.395H72.9414L108.47 19.6484L116.006 0.807467H131.079L145.344 134.04Z" fill="#EDE9FE"/>
<path d="M294.911 123.812L293.296 134.04H217.394L217.933 93.6664L217.394 0.807467H293.296L294.373 2.42241L293.027 12.6503L259.921 11.8429H230.852L230.583 59.7527L258.037 60.0219L281.723 59.4836L282.53 61.0985L281.454 71.5956L256.96 71.0573L230.314 71.3265V92.5898L230.583 123.004H258.037L293.566 122.466L294.911 123.812Z" fill="#EDE9FE"/>
<path d="M438.864 2.42241L437.787 13.1887L413.832 12.112H397.145L396.606 92.5898L397.145 134.04H383.956L384.225 93.6664L383.956 12.112H367.537L343.044 13.1887L341.967 11.8429L343.044 0.807467H438.056L438.864 2.42241Z" fill="#EDE9FE"/>
<path d="M599.447 134.04H585.182L581.952 121.659L544.001 15.6111H542.655L500.936 121.12L497.437 134.04H483.172L509.414 67.2891L535.657 0.538314H551.806L599.447 134.04Z" fill="#E11D48"/>
<path d="M709 134.04H693.658L644.941 0.807467H658.668L661.898 13.1887L701.195 119.775H702.271L745.605 13.727L748.835 0.807467H762.293L709 134.04Z" fill="#EDE9FE"/>
<path d="M899.62 123.812L898.005 134.04H822.103L822.641 93.6664L822.103 0.807467H898.005L899.081 2.42241L897.736 12.6503L864.629 11.8429H835.56L835.291 59.7527L862.745 60.0219L886.431 59.4836L887.238 61.0985L886.162 71.5956L861.669 71.0573L835.022 71.3265V92.5898L835.291 123.004H862.745L898.274 122.466L899.62 123.812Z" fill="#EDE9FE"/>
<path d="M1014.77 79.6703C1026.08 96.7169 1038.73 113.763 1052.72 130.81V132.694C1049.31 134.13 1045.37 135.117 1040.88 135.655L1038.46 134.309C1025.18 116.365 1013.52 99.1393 1003.47 82.631L976.014 82.9002V92.5898L976.283 134.04H963.094L963.633 93.6664L963.094 0.807467L1002.39 0.538314C1016.03 0.538314 1026.53 3.85791 1033.88 10.4971C1041.24 16.9569 1044.92 26.1979 1044.92 38.2202C1044.92 47.7304 1042.32 56.0743 1037.11 63.2518C1031.91 70.4293 1024.46 75.9021 1014.77 79.6703ZM976.014 71.5956L1004.01 72.1339C1012.98 69.8012 1019.71 65.8536 1024.19 60.291C1028.86 54.7285 1031.19 47.7304 1031.19 39.2968C1031.19 21.712 1020.87 12.3812 1000.24 11.3046L976.552 11.8429L976.014 71.5956Z" fill="#EDE9FE"/>
<path d="M1155.39 0C1165.79 0 1175.84 2.06353 1185.53 6.1906L1183.38 19.1101L1180.96 19.6484C1171.98 13.5475 1163.01 10.4971 1154.04 10.4971C1145.07 10.4971 1137.89 13.0092 1132.51 18.0335C1127.3 22.8783 1124.7 28.3511 1124.7 34.452C1124.7 40.3735 1127.03 45.1286 1131.7 48.7173C1136.54 52.3061 1143.81 56.164 1153.5 60.291C1161.58 64.0592 1167.95 67.3788 1172.61 70.2498C1177.28 72.9414 1181.31 76.6199 1184.72 81.2852C1188.13 85.7712 1189.84 91.3337 1189.84 97.9729C1189.84 104.612 1187.95 110.803 1184.19 116.545C1180.6 122.107 1175.39 126.593 1168.57 130.003C1161.76 133.412 1153.86 135.117 1144.89 135.117C1138.79 135.117 1132.51 134.399 1126.05 132.963C1119.59 131.348 1113.67 129.016 1108.28 125.965L1109.63 112.238L1111.51 111.431C1116.18 115.737 1121.65 119.057 1127.93 121.39C1134.39 123.543 1140.49 124.619 1146.23 124.619C1155.21 124.619 1162.47 122.197 1168.04 117.352C1173.78 112.328 1176.65 106.496 1176.65 99.857C1176.65 93.5767 1174.23 88.6422 1169.38 85.0534C1164.72 81.2852 1157.36 77.0685 1147.31 72.4031C1139.6 68.8143 1133.31 65.6742 1128.47 62.9826C1123.8 60.1116 1119.77 56.4331 1116.36 51.9472C1113.13 47.4613 1111.51 41.9884 1111.51 35.5286C1111.51 28.8895 1113.31 22.8783 1116.9 17.4952C1120.66 12.112 1125.87 7.89526 1132.51 4.84482C1139.15 1.61494 1146.77 0 1155.39 0Z" fill="#EDE9FE"/>
<path d="M1336 123.812L1334.39 134.04H1258.48L1259.02 93.6664L1258.48 0.807467H1334.39L1335.46 2.42241L1334.12 12.6503L1301.01 11.8429H1271.94L1271.67 59.7527L1299.13 60.0219L1322.81 59.4836L1323.62 61.0985L1322.54 71.5956L1298.05 71.0573L1271.4 71.3265V92.5898L1271.67 123.004H1299.13L1334.65 122.466L1336 123.812Z" fill="#EDE9FE"/>
</svg>
