<svg viewBox="0 0 1336 136" xmlns="http://www.w3.org/2000/svg">
  <path d="M145.344 134.04h-12.112l-3.768-40.6427-8.344-70.519h-1.345L77.5171 118.16H66.2125L25.5699 22.8783h-1.615l-8.0747 69.4424-4.0373 41.7193H0L15.0728.807467h15.611L38.2202 21.2634l33.6446 79.1316h1.0766L108.47 19.6484 116.006.807467h15.073L145.344 134.04ZM294.911 123.812l-1.615 10.228h-75.902l.539-40.3736-.539-92.858933h75.902l1.077 1.614943-1.346 10.22789-33.106-.8074h-29.069l-.269 47.9098 27.454.2692 23.686-.5383.807 1.6149-1.076 10.4971-24.494-.5383-26.646.2692v21.2633l.269 30.4142h27.454l35.529-.538 1.345 1.346ZM438.864 2.42241l-1.077 10.76629-23.955-1.0767h-16.687l-.539 80.4778.539 41.4502h-13.189l.269-40.3736-.269-81.5544h-16.419l-24.493 1.0767-1.077-1.3458L343.044.807467h95.012l.808 1.614943Z" fill="#0F172A"/>
  <path d="M599.447 134.04h-14.265l-3.23-12.381-37.951-106.0479h-1.346L500.936 121.12l-3.499 12.92h-14.265l26.242-66.7509L535.657.538314h16.149L599.447 134.04Z" fill="#E11D48"/>
  <path d="M709 134.04h-15.342L644.941.807467h13.727l3.23 12.381233 39.297 106.5863h1.076l43.334-106.048 3.23-12.919533h13.458L709 134.04ZM899.62 123.812l-1.615 10.228h-75.902l.538-40.3736-.538-92.858933h75.902l1.076 1.614943-1.345 10.22789-33.107-.8074H835.56l-.269 47.9098 27.454.2692 23.686-.5383.807 1.6149-1.076 10.4971-24.493-.5383-26.647.2692v21.2633l.269 30.4142h27.454l35.529-.538 1.346 1.346ZM1014.77 79.6703c11.31 17.0466 23.96 34.0927 37.95 51.1397v1.884c-3.41 1.436-7.35 2.423-11.84 2.961l-2.42-1.346c-13.28-17.944-24.94-35.1697-34.99-51.678l-27.456.2692v9.6896l.269 41.4502h-13.189l.539-40.3736-.539-92.858933 39.296-.269153c13.64 0 24.14 3.319596 31.49 9.958786 7.36 6.4598 11.04 15.7008 11.04 27.7231 0 9.5102-2.6 17.8541-7.81 25.0316-5.2 7.1775-12.65 12.6503-22.34 16.4185Zm-38.756-8.0747 27.996.5383c8.97-2.3327 15.7-6.2803 20.18-11.8429 4.67-5.5625 7-12.5606 7-20.9942 0-17.5848-10.32-26.9156-30.95-27.9922l-23.688.5383-.538 59.7527ZM1155.39 0c10.4 0 20.45 2.06353 30.14 6.1906l-2.15 12.9195-2.42.5383c-8.98-6.1009-17.95-9.1513-26.92-9.1513-8.97 0-16.15 2.5121-21.53 7.5364-5.21 4.8448-7.81 10.3176-7.81 16.4185 0 5.9215 2.33 10.6766 7 14.2653 4.84 3.5888 12.11 7.4467 21.8 11.5737 8.08 3.7682 14.45 7.0878 19.11 9.9588 4.67 2.6916 8.7 6.3701 12.11 11.0354 3.41 4.486 5.12 10.0485 5.12 16.6877 0 6.6391-1.89 12.8301-5.65 18.5721-3.59 5.562-8.8 10.048-15.62 13.458-6.81 3.409-14.71 5.114-23.68 5.114-6.1 0-12.38-.718-18.84-2.154-6.46-1.615-12.38-3.947-17.77-6.998l1.35-13.727 1.88-.807c4.67 4.306 10.14 7.626 16.42 9.959 6.46 2.153 12.56 3.229 18.3 3.229 8.98 0 16.24-2.422 21.81-7.267 5.74-5.024 8.61-10.856 8.61-17.495 0-6.2803-2.42-11.2148-7.27-14.8036-4.66-3.7682-12.02-7.9849-22.07-12.6503-7.71-3.5888-14-6.7289-18.84-9.4205-4.67-2.871-8.7-6.5495-12.11-11.0354-3.23-4.4859-4.85-9.9588-4.85-16.4186 0-6.6391 1.8-12.6503 5.39-18.0334 3.76-5.3832 8.97-9.59994 15.61-12.65038C1139.15 1.61494 1146.77 0 1155.39 0ZM1336 123.812l-1.61 10.228h-75.91l.54-40.3736-.54-92.858933h75.91l1.07 1.614943-1.34 10.22789-33.11-.8074h-29.07l-.27 47.9098 27.46.2692 23.68-.5383.81 1.6149-1.08 10.4971-24.49-.5383-26.65.2692v21.2633l.27 30.4142h27.46l35.52-.538 1.35 1.346Z" fill="#0F172A"/>
</svg>
